<mxfile host="app.diagrams.net" modified="2022-09-17T16:21:20.715Z" agent="5.0 (Windows NT 10.0; Win64; x64) AppleWebKit/537.36 (KHTML, like Gecko) Chrome/105.0.0.0 Safari/537.36" etag="tP7r3Z1XniinV41YsYjh" version="20.3.2" type="github" pages="3">
  <diagram id="by3dFrqGGE1jf7JbuyEm" name="Student">
    <mxGraphModel dx="868" dy="1619" grid="1" gridSize="10" guides="1" tooltips="1" connect="1" arrows="1" fold="1" page="1" pageScale="1" pageWidth="827" pageHeight="1169" math="0" shadow="0">
      <root>
        <mxCell id="0" />
        <mxCell id="1" parent="0" />
        <mxCell id="ym8kpiUb6-p46bEAyXIa-1" value="" style="rounded=0;html=1;jettySize=auto;orthogonalLoop=1;fontSize=11;endArrow=block;endFill=0;endSize=8;strokeWidth=1;shadow=0;labelBackgroundColor=none;edgeStyle=orthogonalEdgeStyle;" edge="1" parent="1" source="ym8kpiUb6-p46bEAyXIa-16" target="ym8kpiUb6-p46bEAyXIa-19">
          <mxGeometry relative="1" as="geometry" />
        </mxCell>
        <mxCell id="ym8kpiUb6-p46bEAyXIa-2" value="" style="edgeStyle=orthogonalEdgeStyle;rounded=0;orthogonalLoop=1;jettySize=auto;html=1;" edge="1" parent="1" source="ym8kpiUb6-p46bEAyXIa-16" target="ym8kpiUb6-p46bEAyXIa-70">
          <mxGeometry relative="1" as="geometry" />
        </mxCell>
        <mxCell id="ym8kpiUb6-p46bEAyXIa-3" value="" style="edgeStyle=orthogonalEdgeStyle;rounded=0;orthogonalLoop=1;jettySize=auto;html=1;" edge="1" parent="1" source="ym8kpiUb6-p46bEAyXIa-16" target="ym8kpiUb6-p46bEAyXIa-70">
          <mxGeometry relative="1" as="geometry" />
        </mxCell>
        <mxCell id="ym8kpiUb6-p46bEAyXIa-4" style="edgeStyle=orthogonalEdgeStyle;rounded=0;orthogonalLoop=1;jettySize=auto;html=1;entryX=0;entryY=0.5;entryDx=0;entryDy=0;" edge="1" parent="1" source="ym8kpiUb6-p46bEAyXIa-16" target="ym8kpiUb6-p46bEAyXIa-71">
          <mxGeometry relative="1" as="geometry">
            <Array as="points">
              <mxPoint x="600" y="90" />
              <mxPoint x="600" y="5" />
            </Array>
          </mxGeometry>
        </mxCell>
        <mxCell id="ym8kpiUb6-p46bEAyXIa-5" style="edgeStyle=orthogonalEdgeStyle;rounded=0;orthogonalLoop=1;jettySize=auto;html=1;exitX=1;exitY=0.25;exitDx=0;exitDy=0;" edge="1" parent="1" source="ym8kpiUb6-p46bEAyXIa-16" target="ym8kpiUb6-p46bEAyXIa-24">
          <mxGeometry relative="1" as="geometry" />
        </mxCell>
        <mxCell id="ym8kpiUb6-p46bEAyXIa-6" style="edgeStyle=orthogonalEdgeStyle;rounded=0;orthogonalLoop=1;jettySize=auto;html=1;" edge="1" parent="1" source="ym8kpiUb6-p46bEAyXIa-16" target="ym8kpiUb6-p46bEAyXIa-72">
          <mxGeometry relative="1" as="geometry" />
        </mxCell>
        <mxCell id="ym8kpiUb6-p46bEAyXIa-7" style="edgeStyle=orthogonalEdgeStyle;rounded=0;orthogonalLoop=1;jettySize=auto;html=1;entryX=0.682;entryY=0.982;entryDx=0;entryDy=0;entryPerimeter=0;" edge="1" parent="1" source="ym8kpiUb6-p46bEAyXIa-16" target="ym8kpiUb6-p46bEAyXIa-22">
          <mxGeometry relative="1" as="geometry">
            <Array as="points">
              <mxPoint x="430" y="24" />
            </Array>
          </mxGeometry>
        </mxCell>
        <mxCell id="ym8kpiUb6-p46bEAyXIa-8" style="edgeStyle=orthogonalEdgeStyle;rounded=0;orthogonalLoop=1;jettySize=auto;html=1;entryX=1;entryY=0.5;entryDx=0;entryDy=0;" edge="1" parent="1" source="ym8kpiUb6-p46bEAyXIa-16" target="ym8kpiUb6-p46bEAyXIa-81">
          <mxGeometry relative="1" as="geometry" />
        </mxCell>
        <mxCell id="ym8kpiUb6-p46bEAyXIa-9" style="edgeStyle=orthogonalEdgeStyle;rounded=0;orthogonalLoop=1;jettySize=auto;html=1;entryX=1;entryY=0.5;entryDx=0;entryDy=0;" edge="1" parent="1" source="ym8kpiUb6-p46bEAyXIa-16" target="ym8kpiUb6-p46bEAyXIa-23">
          <mxGeometry relative="1" as="geometry" />
        </mxCell>
        <mxCell id="ym8kpiUb6-p46bEAyXIa-10" style="edgeStyle=orthogonalEdgeStyle;rounded=0;orthogonalLoop=1;jettySize=auto;html=1;entryX=1;entryY=0.5;entryDx=0;entryDy=0;" edge="1" parent="1" source="ym8kpiUb6-p46bEAyXIa-16" target="ym8kpiUb6-p46bEAyXIa-78">
          <mxGeometry relative="1" as="geometry" />
        </mxCell>
        <mxCell id="ym8kpiUb6-p46bEAyXIa-11" style="edgeStyle=orthogonalEdgeStyle;rounded=0;orthogonalLoop=1;jettySize=auto;html=1;entryX=1;entryY=0.5;entryDx=0;entryDy=0;" edge="1" parent="1" source="ym8kpiUb6-p46bEAyXIa-16" target="ym8kpiUb6-p46bEAyXIa-79">
          <mxGeometry relative="1" as="geometry" />
        </mxCell>
        <mxCell id="ym8kpiUb6-p46bEAyXIa-12" style="edgeStyle=orthogonalEdgeStyle;rounded=0;orthogonalLoop=1;jettySize=auto;html=1;entryX=1;entryY=0.5;entryDx=0;entryDy=0;" edge="1" parent="1" source="ym8kpiUb6-p46bEAyXIa-16" target="ym8kpiUb6-p46bEAyXIa-80">
          <mxGeometry relative="1" as="geometry" />
        </mxCell>
        <mxCell id="ym8kpiUb6-p46bEAyXIa-13" style="edgeStyle=orthogonalEdgeStyle;rounded=0;orthogonalLoop=1;jettySize=auto;html=1;entryX=0.5;entryY=1;entryDx=0;entryDy=0;" edge="1" parent="1" source="ym8kpiUb6-p46bEAyXIa-16" target="ym8kpiUb6-p46bEAyXIa-77">
          <mxGeometry relative="1" as="geometry" />
        </mxCell>
        <mxCell id="ym8kpiUb6-p46bEAyXIa-14" style="edgeStyle=orthogonalEdgeStyle;rounded=0;orthogonalLoop=1;jettySize=auto;html=1;" edge="1" parent="1" source="ym8kpiUb6-p46bEAyXIa-16" target="ym8kpiUb6-p46bEAyXIa-82">
          <mxGeometry relative="1" as="geometry" />
        </mxCell>
        <mxCell id="ym8kpiUb6-p46bEAyXIa-15" style="edgeStyle=orthogonalEdgeStyle;rounded=0;orthogonalLoop=1;jettySize=auto;html=1;entryX=1;entryY=0.5;entryDx=0;entryDy=0;" edge="1" parent="1" source="ym8kpiUb6-p46bEAyXIa-16" target="ym8kpiUb6-p46bEAyXIa-86">
          <mxGeometry relative="1" as="geometry">
            <Array as="points">
              <mxPoint x="310" y="90" />
              <mxPoint x="310" y="-85" />
            </Array>
          </mxGeometry>
        </mxCell>
        <mxCell id="ym8kpiUb6-p46bEAyXIa-16" value="STUDENT" style="rounded=1;whiteSpace=wrap;html=1;fontSize=12;glass=0;strokeWidth=1;shadow=0;" vertex="1" parent="1">
          <mxGeometry x="410" y="70" width="120" height="40" as="geometry" />
        </mxCell>
        <mxCell id="ym8kpiUb6-p46bEAyXIa-17" value="" style="edgeStyle=orthogonalEdgeStyle;rounded=0;orthogonalLoop=1;jettySize=auto;html=1;" edge="1" parent="1" source="ym8kpiUb6-p46bEAyXIa-19" target="ym8kpiUb6-p46bEAyXIa-27">
          <mxGeometry relative="1" as="geometry" />
        </mxCell>
        <mxCell id="ym8kpiUb6-p46bEAyXIa-18" value="" style="edgeStyle=orthogonalEdgeStyle;rounded=0;orthogonalLoop=1;jettySize=auto;html=1;" edge="1" parent="1" source="ym8kpiUb6-p46bEAyXIa-19" target="ym8kpiUb6-p46bEAyXIa-67">
          <mxGeometry relative="1" as="geometry" />
        </mxCell>
        <mxCell id="ym8kpiUb6-p46bEAyXIa-19" value="STU_SECT" style="rhombus;whiteSpace=wrap;html=1;shadow=0;fontFamily=Helvetica;fontSize=12;align=center;strokeWidth=1;spacing=6;spacingTop=-4;" vertex="1" parent="1">
          <mxGeometry x="420" y="180" width="100" height="80" as="geometry" />
        </mxCell>
        <mxCell id="ym8kpiUb6-p46bEAyXIa-20" value="No" style="rounded=0;html=1;jettySize=auto;orthogonalLoop=1;fontSize=11;endArrow=block;endFill=0;endSize=8;strokeWidth=1;shadow=0;labelBackgroundColor=none;edgeStyle=orthogonalEdgeStyle;" edge="1" parent="1" target="ym8kpiUb6-p46bEAyXIa-21">
          <mxGeometry x="0.3333" y="20" relative="1" as="geometry">
            <mxPoint as="offset" />
            <mxPoint x="420" y="340" as="sourcePoint" />
          </mxGeometry>
        </mxCell>
        <mxCell id="ym8kpiUb6-p46bEAyXIa-21" value="Instructor" style="rounded=1;whiteSpace=wrap;html=1;fontSize=12;glass=0;strokeWidth=1;shadow=0;" vertex="1" parent="1">
          <mxGeometry x="230" y="320" width="120" height="40" as="geometry" />
        </mxCell>
        <mxCell id="ym8kpiUb6-p46bEAyXIa-22" value="SSN" style="ellipse;whiteSpace=wrap;html=1;" vertex="1" parent="1">
          <mxGeometry x="390" y="-30" width="77" height="25" as="geometry" />
        </mxCell>
        <mxCell id="ym8kpiUb6-p46bEAyXIa-23" value="Sex" style="ellipse;whiteSpace=wrap;html=1;" vertex="1" parent="1">
          <mxGeometry x="40" y="15" width="80" height="30" as="geometry" />
        </mxCell>
        <mxCell id="ym8kpiUb6-p46bEAyXIa-24" value="DegreeProgram" style="ellipse;whiteSpace=wrap;html=1;fontSize=12;" vertex="1" parent="1">
          <mxGeometry x="545" y="-47.5" width="90" height="35" as="geometry" />
        </mxCell>
        <mxCell id="ym8kpiUb6-p46bEAyXIa-25" value="" style="edgeStyle=orthogonalEdgeStyle;rounded=0;orthogonalLoop=1;jettySize=auto;html=1;" edge="1" parent="1" source="ym8kpiUb6-p46bEAyXIa-27" target="ym8kpiUb6-p46bEAyXIa-29">
          <mxGeometry relative="1" as="geometry" />
        </mxCell>
        <mxCell id="ym8kpiUb6-p46bEAyXIa-26" value="" style="edgeStyle=orthogonalEdgeStyle;rounded=0;orthogonalLoop=1;jettySize=auto;html=1;" edge="1" parent="1" source="ym8kpiUb6-p46bEAyXIa-27" target="ym8kpiUb6-p46bEAyXIa-48">
          <mxGeometry relative="1" as="geometry" />
        </mxCell>
        <mxCell id="ym8kpiUb6-p46bEAyXIa-27" value="SECTION" style="rounded=0;whiteSpace=wrap;html=1;" vertex="1" parent="1">
          <mxGeometry x="407" y="310" width="126" height="50" as="geometry" />
        </mxCell>
        <mxCell id="ym8kpiUb6-p46bEAyXIa-28" value="" style="edgeStyle=orthogonalEdgeStyle;rounded=0;orthogonalLoop=1;jettySize=auto;html=1;" edge="1" parent="1" source="ym8kpiUb6-p46bEAyXIa-29" target="ym8kpiUb6-p46bEAyXIa-37">
          <mxGeometry relative="1" as="geometry" />
        </mxCell>
        <mxCell id="ym8kpiUb6-p46bEAyXIa-29" value="&lt;span style=&quot;white-space: pre;&quot;&gt;COURSE_SECT&lt;/span&gt;" style="rhombus;whiteSpace=wrap;html=1;" vertex="1" parent="1">
          <mxGeometry x="580" y="280" width="120" height="110" as="geometry" />
        </mxCell>
        <mxCell id="ym8kpiUb6-p46bEAyXIa-30" value="" style="edgeStyle=orthogonalEdgeStyle;rounded=0;orthogonalLoop=1;jettySize=auto;html=1;" edge="1" parent="1" source="ym8kpiUb6-p46bEAyXIa-37" target="ym8kpiUb6-p46bEAyXIa-39">
          <mxGeometry relative="1" as="geometry" />
        </mxCell>
        <mxCell id="ym8kpiUb6-p46bEAyXIa-31" value="" style="edgeStyle=orthogonalEdgeStyle;rounded=0;orthogonalLoop=1;jettySize=auto;html=1;" edge="1" parent="1" source="ym8kpiUb6-p46bEAyXIa-37" target="ym8kpiUb6-p46bEAyXIa-40">
          <mxGeometry relative="1" as="geometry" />
        </mxCell>
        <mxCell id="ym8kpiUb6-p46bEAyXIa-32" value="" style="edgeStyle=orthogonalEdgeStyle;rounded=0;orthogonalLoop=1;jettySize=auto;html=1;" edge="1" parent="1" source="ym8kpiUb6-p46bEAyXIa-37" target="ym8kpiUb6-p46bEAyXIa-41">
          <mxGeometry relative="1" as="geometry" />
        </mxCell>
        <mxCell id="ym8kpiUb6-p46bEAyXIa-33" value="" style="edgeStyle=orthogonalEdgeStyle;rounded=0;orthogonalLoop=1;jettySize=auto;html=1;" edge="1" parent="1" source="ym8kpiUb6-p46bEAyXIa-37" target="ym8kpiUb6-p46bEAyXIa-42">
          <mxGeometry relative="1" as="geometry">
            <Array as="points">
              <mxPoint x="990" y="335" />
              <mxPoint x="990" y="400" />
            </Array>
          </mxGeometry>
        </mxCell>
        <mxCell id="ym8kpiUb6-p46bEAyXIa-34" value="" style="edgeStyle=orthogonalEdgeStyle;rounded=0;orthogonalLoop=1;jettySize=auto;html=1;" edge="1" parent="1" source="ym8kpiUb6-p46bEAyXIa-37" target="ym8kpiUb6-p46bEAyXIa-43">
          <mxGeometry relative="1" as="geometry" />
        </mxCell>
        <mxCell id="ym8kpiUb6-p46bEAyXIa-35" value="" style="edgeStyle=orthogonalEdgeStyle;rounded=0;orthogonalLoop=1;jettySize=auto;html=1;" edge="1" parent="1" source="ym8kpiUb6-p46bEAyXIa-37" target="ym8kpiUb6-p46bEAyXIa-43">
          <mxGeometry relative="1" as="geometry" />
        </mxCell>
        <mxCell id="ym8kpiUb6-p46bEAyXIa-36" value="" style="edgeStyle=orthogonalEdgeStyle;rounded=0;orthogonalLoop=1;jettySize=auto;html=1;" edge="1" parent="1" source="ym8kpiUb6-p46bEAyXIa-37" target="ym8kpiUb6-p46bEAyXIa-44">
          <mxGeometry relative="1" as="geometry">
            <Array as="points">
              <mxPoint x="990" y="335" />
              <mxPoint x="990" y="276" />
            </Array>
          </mxGeometry>
        </mxCell>
        <mxCell id="ym8kpiUb6-p46bEAyXIa-37" value="COURSE" style="whiteSpace=wrap;html=1;" vertex="1" parent="1">
          <mxGeometry x="850" y="312.5" width="120" height="45" as="geometry" />
        </mxCell>
        <mxCell id="ym8kpiUb6-p46bEAyXIa-38" value="" style="edgeStyle=orthogonalEdgeStyle;rounded=0;orthogonalLoop=1;jettySize=auto;html=1;" edge="1" parent="1" source="ym8kpiUb6-p46bEAyXIa-39" target="ym8kpiUb6-p46bEAyXIa-59">
          <mxGeometry relative="1" as="geometry" />
        </mxCell>
        <mxCell id="ym8kpiUb6-p46bEAyXIa-39" value="DEPT_COURSE" style="rhombus;whiteSpace=wrap;html=1;" vertex="1" parent="1">
          <mxGeometry x="855" y="160" width="110" height="70" as="geometry" />
        </mxCell>
        <mxCell id="ym8kpiUb6-p46bEAyXIa-40" value="SemesterHours" style="ellipse;whiteSpace=wrap;html=1;" vertex="1" parent="1">
          <mxGeometry x="735" y="400" width="115" height="50" as="geometry" />
        </mxCell>
        <mxCell id="ym8kpiUb6-p46bEAyXIa-41" value="CDescription" style="ellipse;whiteSpace=wrap;html=1;" vertex="1" parent="1">
          <mxGeometry x="855" y="410" width="110" height="40" as="geometry" />
        </mxCell>
        <mxCell id="ym8kpiUb6-p46bEAyXIa-42" value="Cnum" style="ellipse;whiteSpace=wrap;html=1;" vertex="1" parent="1">
          <mxGeometry x="1030" y="380" width="90" height="40" as="geometry" />
        </mxCell>
        <mxCell id="ym8kpiUb6-p46bEAyXIa-43" value="Came" style="ellipse;whiteSpace=wrap;html=1;" vertex="1" parent="1">
          <mxGeometry x="1020" y="317.5" width="110" height="35" as="geometry" />
        </mxCell>
        <mxCell id="ym8kpiUb6-p46bEAyXIa-44" value="Level" style="ellipse;whiteSpace=wrap;html=1;" vertex="1" parent="1">
          <mxGeometry x="1020" y="252.5" width="100" height="47.5" as="geometry" />
        </mxCell>
        <mxCell id="ym8kpiUb6-p46bEAyXIa-45" value="" style="edgeStyle=orthogonalEdgeStyle;rounded=0;orthogonalLoop=1;jettySize=auto;html=1;" edge="1" parent="1" source="ym8kpiUb6-p46bEAyXIa-48" target="ym8kpiUb6-p46bEAyXIa-49">
          <mxGeometry relative="1" as="geometry" />
        </mxCell>
        <mxCell id="ym8kpiUb6-p46bEAyXIa-46" value="" style="edgeStyle=orthogonalEdgeStyle;rounded=0;orthogonalLoop=1;jettySize=auto;html=1;" edge="1" parent="1" source="ym8kpiUb6-p46bEAyXIa-48" target="ym8kpiUb6-p46bEAyXIa-50">
          <mxGeometry relative="1" as="geometry" />
        </mxCell>
        <mxCell id="ym8kpiUb6-p46bEAyXIa-47" value="" style="edgeStyle=orthogonalEdgeStyle;rounded=0;orthogonalLoop=1;jettySize=auto;html=1;" edge="1" parent="1" source="ym8kpiUb6-p46bEAyXIa-48" target="ym8kpiUb6-p46bEAyXIa-51">
          <mxGeometry relative="1" as="geometry" />
        </mxCell>
        <mxCell id="ym8kpiUb6-p46bEAyXIa-48" value="PartialKey" style="ellipse;whiteSpace=wrap;html=1;rounded=0;" vertex="1" parent="1">
          <mxGeometry x="410" y="395" width="120" height="45" as="geometry" />
        </mxCell>
        <mxCell id="ym8kpiUb6-p46bEAyXIa-49" value="Semester" style="ellipse;whiteSpace=wrap;html=1;rounded=0;" vertex="1" parent="1">
          <mxGeometry x="420" y="470" width="100" height="40" as="geometry" />
        </mxCell>
        <mxCell id="ym8kpiUb6-p46bEAyXIa-50" value="Year" style="ellipse;whiteSpace=wrap;html=1;rounded=0;" vertex="1" parent="1">
          <mxGeometry x="540" y="460" width="90" height="50" as="geometry" />
        </mxCell>
        <mxCell id="ym8kpiUb6-p46bEAyXIa-51" value="Snum" style="ellipse;whiteSpace=wrap;html=1;rounded=0;" vertex="1" parent="1">
          <mxGeometry x="300" y="470" width="103" height="40" as="geometry" />
        </mxCell>
        <mxCell id="ym8kpiUb6-p46bEAyXIa-52" value="" style="edgeStyle=orthogonalEdgeStyle;rounded=0;orthogonalLoop=1;jettySize=auto;html=1;" edge="1" parent="1" source="ym8kpiUb6-p46bEAyXIa-59" target="ym8kpiUb6-p46bEAyXIa-60">
          <mxGeometry relative="1" as="geometry" />
        </mxCell>
        <mxCell id="ym8kpiUb6-p46bEAyXIa-53" value="" style="edgeStyle=orthogonalEdgeStyle;rounded=0;orthogonalLoop=1;jettySize=auto;html=1;" edge="1" parent="1" source="ym8kpiUb6-p46bEAyXIa-59" target="ym8kpiUb6-p46bEAyXIa-61">
          <mxGeometry relative="1" as="geometry">
            <Array as="points">
              <mxPoint x="990" y="70" />
              <mxPoint x="990" />
            </Array>
          </mxGeometry>
        </mxCell>
        <mxCell id="ym8kpiUb6-p46bEAyXIa-54" value="" style="edgeStyle=orthogonalEdgeStyle;rounded=0;orthogonalLoop=1;jettySize=auto;html=1;" edge="1" parent="1" source="ym8kpiUb6-p46bEAyXIa-59" target="ym8kpiUb6-p46bEAyXIa-62">
          <mxGeometry relative="1" as="geometry">
            <Array as="points">
              <mxPoint x="990" y="70" />
              <mxPoint x="990" y="140" />
            </Array>
          </mxGeometry>
        </mxCell>
        <mxCell id="ym8kpiUb6-p46bEAyXIa-55" value="" style="edgeStyle=orthogonalEdgeStyle;rounded=0;orthogonalLoop=1;jettySize=auto;html=1;" edge="1" parent="1" source="ym8kpiUb6-p46bEAyXIa-59" target="ym8kpiUb6-p46bEAyXIa-63">
          <mxGeometry relative="1" as="geometry" />
        </mxCell>
        <mxCell id="ym8kpiUb6-p46bEAyXIa-56" value="" style="edgeStyle=orthogonalEdgeStyle;rounded=0;orthogonalLoop=1;jettySize=auto;html=1;" edge="1" parent="1" source="ym8kpiUb6-p46bEAyXIa-59" target="ym8kpiUb6-p46bEAyXIa-64">
          <mxGeometry relative="1" as="geometry">
            <Array as="points">
              <mxPoint x="870" y="-20" />
            </Array>
          </mxGeometry>
        </mxCell>
        <mxCell id="ym8kpiUb6-p46bEAyXIa-57" value="" style="edgeStyle=orthogonalEdgeStyle;rounded=0;orthogonalLoop=1;jettySize=auto;html=1;" edge="1" parent="1" source="ym8kpiUb6-p46bEAyXIa-59" target="ym8kpiUb6-p46bEAyXIa-70">
          <mxGeometry relative="1" as="geometry" />
        </mxCell>
        <mxCell id="ym8kpiUb6-p46bEAyXIa-58" value="" style="edgeStyle=orthogonalEdgeStyle;rounded=0;orthogonalLoop=1;jettySize=auto;html=1;" edge="1" parent="1" source="ym8kpiUb6-p46bEAyXIa-59" target="ym8kpiUb6-p46bEAyXIa-71">
          <mxGeometry relative="1" as="geometry">
            <Array as="points">
              <mxPoint x="850" y="70" />
              <mxPoint x="850" y="5" />
            </Array>
          </mxGeometry>
        </mxCell>
        <mxCell id="ym8kpiUb6-p46bEAyXIa-59" value="DEPARTMENT" style="whiteSpace=wrap;html=1;" vertex="1" parent="1">
          <mxGeometry x="855" y="50" width="110" height="40" as="geometry" />
        </mxCell>
        <mxCell id="ym8kpiUb6-p46bEAyXIa-60" value="College" style="ellipse;whiteSpace=wrap;html=1;" vertex="1" parent="1">
          <mxGeometry x="1040" y="45" width="110" height="50" as="geometry" />
        </mxCell>
        <mxCell id="ym8kpiUb6-p46bEAyXIa-61" value="DPhone" style="ellipse;whiteSpace=wrap;html=1;" vertex="1" parent="1">
          <mxGeometry x="1040" y="-20" width="110" height="40" as="geometry" />
        </mxCell>
        <mxCell id="ym8kpiUb6-p46bEAyXIa-62" value="DOffice" style="ellipse;whiteSpace=wrap;html=1;" vertex="1" parent="1">
          <mxGeometry x="1035" y="120" width="115" height="40" as="geometry" />
        </mxCell>
        <mxCell id="ym8kpiUb6-p46bEAyXIa-63" value="DCode" style="ellipse;whiteSpace=wrap;html=1;" vertex="1" parent="1">
          <mxGeometry x="890" y="-70" width="100" height="50" as="geometry" />
        </mxCell>
        <mxCell id="ym8kpiUb6-p46bEAyXIa-64" value="DName" style="ellipse;whiteSpace=wrap;html=1;" vertex="1" parent="1">
          <mxGeometry x="770" y="-70" width="100" height="40" as="geometry" />
        </mxCell>
        <mxCell id="ym8kpiUb6-p46bEAyXIa-65" value="" style="edgeStyle=orthogonalEdgeStyle;rounded=0;orthogonalLoop=1;jettySize=auto;html=1;" edge="1" parent="1" source="ym8kpiUb6-p46bEAyXIa-67" target="ym8kpiUb6-p46bEAyXIa-68">
          <mxGeometry relative="1" as="geometry" />
        </mxCell>
        <mxCell id="ym8kpiUb6-p46bEAyXIa-66" value="" style="edgeStyle=orthogonalEdgeStyle;rounded=0;orthogonalLoop=1;jettySize=auto;html=1;" edge="1" parent="1" source="ym8kpiUb6-p46bEAyXIa-67" target="ym8kpiUb6-p46bEAyXIa-69">
          <mxGeometry relative="1" as="geometry" />
        </mxCell>
        <mxCell id="ym8kpiUb6-p46bEAyXIa-67" value="Grade" style="whiteSpace=wrap;html=1;shadow=0;strokeWidth=1;spacing=6;spacingTop=-4;" vertex="1" parent="1">
          <mxGeometry x="250" y="200" width="100" height="40" as="geometry" />
        </mxCell>
        <mxCell id="ym8kpiUb6-p46bEAyXIa-68" value="NumericGrade" style="ellipse;whiteSpace=wrap;html=1;shadow=0;strokeWidth=1;spacing=6;spacingTop=-4;" vertex="1" parent="1">
          <mxGeometry x="290" y="120" width="90" height="40" as="geometry" />
        </mxCell>
        <mxCell id="ym8kpiUb6-p46bEAyXIa-69" value="LetterGrade" style="ellipse;whiteSpace=wrap;html=1;shadow=0;strokeWidth=1;spacing=6;spacingTop=-4;" vertex="1" parent="1">
          <mxGeometry x="240" y="257.5" width="110" height="42.5" as="geometry" />
        </mxCell>
        <mxCell id="ym8kpiUb6-p46bEAyXIa-70" value="MINOR_DEPT" style="rhombus;whiteSpace=wrap;html=1;" vertex="1" parent="1">
          <mxGeometry x="610" y="80" width="120" height="80" as="geometry" />
        </mxCell>
        <mxCell id="ym8kpiUb6-p46bEAyXIa-71" value="MAJOR_DEPT" style="rhombus;whiteSpace=wrap;html=1;" vertex="1" parent="1">
          <mxGeometry x="635" y="-35" width="100" height="80" as="geometry" />
        </mxCell>
        <mxCell id="ym8kpiUb6-p46bEAyXIa-72" value="PAddress" style="ellipse;whiteSpace=wrap;html=1;rounded=1;glass=0;strokeWidth=1;shadow=0;" vertex="1" parent="1">
          <mxGeometry x="480" y="-11.25" width="90" height="32.5" as="geometry" />
        </mxCell>
        <mxCell id="ym8kpiUb6-p46bEAyXIa-73" style="edgeStyle=orthogonalEdgeStyle;rounded=0;orthogonalLoop=1;jettySize=auto;html=1;exitX=0;exitY=0;exitDx=0;exitDy=0;entryX=1;entryY=1;entryDx=0;entryDy=0;" edge="1" parent="1" source="ym8kpiUb6-p46bEAyXIa-77" target="ym8kpiUb6-p46bEAyXIa-91">
          <mxGeometry relative="1" as="geometry" />
        </mxCell>
        <mxCell id="ym8kpiUb6-p46bEAyXIa-74" style="edgeStyle=orthogonalEdgeStyle;rounded=0;orthogonalLoop=1;jettySize=auto;html=1;entryX=0.5;entryY=1;entryDx=0;entryDy=0;" edge="1" parent="1" source="ym8kpiUb6-p46bEAyXIa-77" target="ym8kpiUb6-p46bEAyXIa-90">
          <mxGeometry relative="1" as="geometry" />
        </mxCell>
        <mxCell id="ym8kpiUb6-p46bEAyXIa-75" style="edgeStyle=orthogonalEdgeStyle;rounded=0;orthogonalLoop=1;jettySize=auto;html=1;exitX=1;exitY=0;exitDx=0;exitDy=0;entryX=0;entryY=1;entryDx=0;entryDy=0;" edge="1" parent="1" source="ym8kpiUb6-p46bEAyXIa-77" target="ym8kpiUb6-p46bEAyXIa-92">
          <mxGeometry relative="1" as="geometry" />
        </mxCell>
        <mxCell id="ym8kpiUb6-p46bEAyXIa-76" style="edgeStyle=orthogonalEdgeStyle;rounded=0;orthogonalLoop=1;jettySize=auto;html=1;exitX=1;exitY=0;exitDx=0;exitDy=0;entryX=0;entryY=1;entryDx=0;entryDy=0;" edge="1" parent="1" source="ym8kpiUb6-p46bEAyXIa-77" target="ym8kpiUb6-p46bEAyXIa-93">
          <mxGeometry relative="1" as="geometry" />
        </mxCell>
        <mxCell id="ym8kpiUb6-p46bEAyXIa-77" value="CAddress" style="ellipse;whiteSpace=wrap;html=1;" vertex="1" parent="1">
          <mxGeometry x="440" y="-75" width="75" height="40" as="geometry" />
        </mxCell>
        <mxCell id="ym8kpiUb6-p46bEAyXIa-78" value="Class" style="ellipse;whiteSpace=wrap;html=1;" vertex="1" parent="1">
          <mxGeometry x="40" y="55" width="80" height="30" as="geometry" />
        </mxCell>
        <mxCell id="ym8kpiUb6-p46bEAyXIa-79" value="CPhone" style="ellipse;whiteSpace=wrap;html=1;" vertex="1" parent="1">
          <mxGeometry x="40" y="95" width="80" height="30" as="geometry" />
        </mxCell>
        <mxCell id="ym8kpiUb6-p46bEAyXIa-80" value="PPhone" style="ellipse;whiteSpace=wrap;html=1;" vertex="1" parent="1">
          <mxGeometry x="40" y="130" width="80" height="30" as="geometry" />
        </mxCell>
        <mxCell id="ym8kpiUb6-p46bEAyXIa-81" value="BirthDate" style="ellipse;whiteSpace=wrap;html=1;" vertex="1" parent="1">
          <mxGeometry x="40" y="-30" width="80" height="30" as="geometry" />
        </mxCell>
        <mxCell id="ym8kpiUb6-p46bEAyXIa-82" value="SNum" style="ellipse;whiteSpace=wrap;html=1;" vertex="1" parent="1">
          <mxGeometry x="327" y="-70" width="80" height="30" as="geometry" />
        </mxCell>
        <mxCell id="ym8kpiUb6-p46bEAyXIa-83" style="edgeStyle=orthogonalEdgeStyle;rounded=0;orthogonalLoop=1;jettySize=auto;html=1;entryX=0.4;entryY=1.067;entryDx=0;entryDy=0;entryPerimeter=0;" edge="1" parent="1" source="ym8kpiUb6-p46bEAyXIa-86" target="ym8kpiUb6-p46bEAyXIa-88">
          <mxGeometry relative="1" as="geometry" />
        </mxCell>
        <mxCell id="ym8kpiUb6-p46bEAyXIa-84" style="edgeStyle=orthogonalEdgeStyle;rounded=0;orthogonalLoop=1;jettySize=auto;html=1;entryX=0.5;entryY=1;entryDx=0;entryDy=0;" edge="1" parent="1" source="ym8kpiUb6-p46bEAyXIa-86" target="ym8kpiUb6-p46bEAyXIa-87">
          <mxGeometry relative="1" as="geometry" />
        </mxCell>
        <mxCell id="ym8kpiUb6-p46bEAyXIa-85" style="edgeStyle=orthogonalEdgeStyle;rounded=0;orthogonalLoop=1;jettySize=auto;html=1;entryX=0.75;entryY=1.05;entryDx=0;entryDy=0;entryPerimeter=0;" edge="1" parent="1" source="ym8kpiUb6-p46bEAyXIa-86" target="ym8kpiUb6-p46bEAyXIa-89">
          <mxGeometry relative="1" as="geometry" />
        </mxCell>
        <mxCell id="ym8kpiUb6-p46bEAyXIa-86" value="Sname" style="ellipse;whiteSpace=wrap;html=1;" vertex="1" parent="1">
          <mxGeometry x="190" y="-100" width="80" height="30" as="geometry" />
        </mxCell>
        <mxCell id="ym8kpiUb6-p46bEAyXIa-87" value="LN" style="ellipse;whiteSpace=wrap;html=1;" vertex="1" parent="1">
          <mxGeometry x="235" y="-180" width="55" height="20" as="geometry" />
        </mxCell>
        <mxCell id="ym8kpiUb6-p46bEAyXIa-88" value="MN" style="ellipse;whiteSpace=wrap;html=1;" vertex="1" parent="1">
          <mxGeometry x="160" y="-180" width="60" height="20" as="geometry" />
        </mxCell>
        <mxCell id="ym8kpiUb6-p46bEAyXIa-89" value="PN" style="ellipse;whiteSpace=wrap;html=1;" vertex="1" parent="1">
          <mxGeometry x="90" y="-180" width="60" height="20" as="geometry" />
        </mxCell>
        <mxCell id="ym8kpiUb6-p46bEAyXIa-90" value="City" style="ellipse;whiteSpace=wrap;html=1;" vertex="1" parent="1">
          <mxGeometry x="451.5" y="-150" width="52" height="30" as="geometry" />
        </mxCell>
        <mxCell id="ym8kpiUb6-p46bEAyXIa-91" value="StreetAddress" style="ellipse;whiteSpace=wrap;html=1;" vertex="1" parent="1">
          <mxGeometry x="340" y="-150" width="90" height="30" as="geometry" />
        </mxCell>
        <mxCell id="ym8kpiUb6-p46bEAyXIa-92" value="State" style="ellipse;whiteSpace=wrap;html=1;" vertex="1" parent="1">
          <mxGeometry x="515" y="-155" width="65" height="35" as="geometry" />
        </mxCell>
        <mxCell id="ym8kpiUb6-p46bEAyXIa-93" value="Zip" style="ellipse;whiteSpace=wrap;html=1;" vertex="1" parent="1">
          <mxGeometry x="600" y="-152.5" width="50" height="30" as="geometry" />
        </mxCell>
      </root>
    </mxGraphModel>
  </diagram>
  <diagram id="rRffEYo0ANqZHHmT0ZRt" name="employee">
    <mxGraphModel dx="868" dy="450" grid="1" gridSize="10" guides="1" tooltips="1" connect="1" arrows="1" fold="1" page="1" pageScale="1" pageWidth="827" pageHeight="1169" math="0" shadow="0">
      <root>
        <mxCell id="0" />
        <mxCell id="1" parent="0" />
        <mxCell id="8MHsdMlUJWaF2BJ-dHRh-1" style="edgeStyle=orthogonalEdgeStyle;rounded=0;orthogonalLoop=1;jettySize=auto;html=1;entryX=1;entryY=0.5;entryDx=0;entryDy=0;" edge="1" parent="1" source="8MHsdMlUJWaF2BJ-dHRh-6" target="8MHsdMlUJWaF2BJ-dHRh-7">
          <mxGeometry relative="1" as="geometry" />
        </mxCell>
        <mxCell id="8MHsdMlUJWaF2BJ-dHRh-2" style="edgeStyle=orthogonalEdgeStyle;rounded=0;orthogonalLoop=1;jettySize=auto;html=1;exitX=0;exitY=0.25;exitDx=0;exitDy=0;entryX=0.5;entryY=1;entryDx=0;entryDy=0;" edge="1" parent="1" source="8MHsdMlUJWaF2BJ-dHRh-6" target="8MHsdMlUJWaF2BJ-dHRh-9">
          <mxGeometry relative="1" as="geometry">
            <Array as="points">
              <mxPoint x="240" y="200" />
              <mxPoint x="85" y="200" />
            </Array>
          </mxGeometry>
        </mxCell>
        <mxCell id="8MHsdMlUJWaF2BJ-dHRh-3" style="edgeStyle=orthogonalEdgeStyle;rounded=0;orthogonalLoop=1;jettySize=auto;html=1;entryX=0.5;entryY=1;entryDx=0;entryDy=0;" edge="1" parent="1" source="8MHsdMlUJWaF2BJ-dHRh-6" target="8MHsdMlUJWaF2BJ-dHRh-10">
          <mxGeometry relative="1" as="geometry" />
        </mxCell>
        <mxCell id="8MHsdMlUJWaF2BJ-dHRh-4" style="edgeStyle=orthogonalEdgeStyle;rounded=0;orthogonalLoop=1;jettySize=auto;html=1;exitX=0.75;exitY=0;exitDx=0;exitDy=0;" edge="1" parent="1" source="8MHsdMlUJWaF2BJ-dHRh-6" target="8MHsdMlUJWaF2BJ-dHRh-8">
          <mxGeometry relative="1" as="geometry" />
        </mxCell>
        <mxCell id="8MHsdMlUJWaF2BJ-dHRh-5" style="edgeStyle=orthogonalEdgeStyle;rounded=0;orthogonalLoop=1;jettySize=auto;html=1;entryX=0;entryY=0.5;entryDx=0;entryDy=0;" edge="1" parent="1" source="8MHsdMlUJWaF2BJ-dHRh-6" target="8MHsdMlUJWaF2BJ-dHRh-12">
          <mxGeometry relative="1" as="geometry">
            <Array as="points">
              <mxPoint x="300" y="320" />
            </Array>
          </mxGeometry>
        </mxCell>
        <mxCell id="8MHsdMlUJWaF2BJ-dHRh-6" value="EMPLOYEE" style="rounded=0;whiteSpace=wrap;html=1;" vertex="1" parent="1">
          <mxGeometry x="240" y="220" width="120" height="50" as="geometry" />
        </mxCell>
        <mxCell id="8MHsdMlUJWaF2BJ-dHRh-7" value="ZipCode" style="ellipse;whiteSpace=wrap;html=1;" vertex="1" parent="1">
          <mxGeometry x="30" y="225" width="90" height="40" as="geometry" />
        </mxCell>
        <mxCell id="8MHsdMlUJWaF2BJ-dHRh-8" value="Number" style="ellipse;whiteSpace=wrap;html=1;" vertex="1" parent="1">
          <mxGeometry x="270" y="100" width="90" height="40" as="geometry" />
        </mxCell>
        <mxCell id="8MHsdMlUJWaF2BJ-dHRh-9" value="LName" style="ellipse;whiteSpace=wrap;html=1;" vertex="1" parent="1">
          <mxGeometry x="40" y="100" width="90" height="40" as="geometry" />
        </mxCell>
        <mxCell id="8MHsdMlUJWaF2BJ-dHRh-10" value="FName" style="ellipse;whiteSpace=wrap;html=1;" vertex="1" parent="1">
          <mxGeometry x="150" y="100" width="90" height="40" as="geometry" />
        </mxCell>
        <mxCell id="8MHsdMlUJWaF2BJ-dHRh-11" style="edgeStyle=orthogonalEdgeStyle;rounded=0;orthogonalLoop=1;jettySize=auto;html=1;exitX=0.5;exitY=1;exitDx=0;exitDy=0;entryX=0.5;entryY=0;entryDx=0;entryDy=0;" edge="1" parent="1" source="8MHsdMlUJWaF2BJ-dHRh-12" target="8MHsdMlUJWaF2BJ-dHRh-39">
          <mxGeometry relative="1" as="geometry" />
        </mxCell>
        <mxCell id="8MHsdMlUJWaF2BJ-dHRh-12" value="" style="rhombus;whiteSpace=wrap;html=1;" vertex="1" parent="1">
          <mxGeometry x="580" y="280" width="80" height="80" as="geometry" />
        </mxCell>
        <mxCell id="8MHsdMlUJWaF2BJ-dHRh-13" style="edgeStyle=orthogonalEdgeStyle;rounded=0;orthogonalLoop=1;jettySize=auto;html=1;entryX=0.5;entryY=1;entryDx=0;entryDy=0;" edge="1" parent="1" source="8MHsdMlUJWaF2BJ-dHRh-18" target="8MHsdMlUJWaF2BJ-dHRh-19">
          <mxGeometry relative="1" as="geometry" />
        </mxCell>
        <mxCell id="8MHsdMlUJWaF2BJ-dHRh-14" style="edgeStyle=orthogonalEdgeStyle;rounded=0;orthogonalLoop=1;jettySize=auto;html=1;exitX=0.25;exitY=0;exitDx=0;exitDy=0;" edge="1" parent="1" source="8MHsdMlUJWaF2BJ-dHRh-18" target="8MHsdMlUJWaF2BJ-dHRh-20">
          <mxGeometry relative="1" as="geometry" />
        </mxCell>
        <mxCell id="8MHsdMlUJWaF2BJ-dHRh-15" style="edgeStyle=orthogonalEdgeStyle;rounded=0;orthogonalLoop=1;jettySize=auto;html=1;exitX=0.5;exitY=0;exitDx=0;exitDy=0;entryX=0.5;entryY=1;entryDx=0;entryDy=0;" edge="1" parent="1" source="8MHsdMlUJWaF2BJ-dHRh-18" target="8MHsdMlUJWaF2BJ-dHRh-21">
          <mxGeometry relative="1" as="geometry" />
        </mxCell>
        <mxCell id="8MHsdMlUJWaF2BJ-dHRh-16" style="edgeStyle=orthogonalEdgeStyle;rounded=0;orthogonalLoop=1;jettySize=auto;html=1;exitX=1;exitY=0.5;exitDx=0;exitDy=0;entryX=0.5;entryY=1;entryDx=0;entryDy=0;" edge="1" parent="1" source="8MHsdMlUJWaF2BJ-dHRh-18" target="8MHsdMlUJWaF2BJ-dHRh-22">
          <mxGeometry relative="1" as="geometry" />
        </mxCell>
        <mxCell id="8MHsdMlUJWaF2BJ-dHRh-17" style="edgeStyle=orthogonalEdgeStyle;rounded=0;orthogonalLoop=1;jettySize=auto;html=1;exitX=0.5;exitY=1;exitDx=0;exitDy=0;entryX=1;entryY=0.5;entryDx=0;entryDy=0;" edge="1" parent="1" source="8MHsdMlUJWaF2BJ-dHRh-18" target="8MHsdMlUJWaF2BJ-dHRh-12">
          <mxGeometry relative="1" as="geometry" />
        </mxCell>
        <mxCell id="8MHsdMlUJWaF2BJ-dHRh-18" value="CUSTOMER" style="rounded=0;whiteSpace=wrap;html=1;" vertex="1" parent="1">
          <mxGeometry x="880" y="215" width="120" height="60" as="geometry" />
        </mxCell>
        <mxCell id="8MHsdMlUJWaF2BJ-dHRh-19" value="Number" style="ellipse;whiteSpace=wrap;html=1;" vertex="1" parent="1">
          <mxGeometry x="750" y="100" width="90" height="40" as="geometry" />
        </mxCell>
        <mxCell id="8MHsdMlUJWaF2BJ-dHRh-20" value="FName" style="ellipse;whiteSpace=wrap;html=1;" vertex="1" parent="1">
          <mxGeometry x="870" y="100" width="90" height="40" as="geometry" />
        </mxCell>
        <mxCell id="8MHsdMlUJWaF2BJ-dHRh-21" value="LName" style="ellipse;whiteSpace=wrap;html=1;" vertex="1" parent="1">
          <mxGeometry x="1000" y="100" width="90" height="40" as="geometry" />
        </mxCell>
        <mxCell id="8MHsdMlUJWaF2BJ-dHRh-22" value="ZipCode" style="ellipse;whiteSpace=wrap;html=1;" vertex="1" parent="1">
          <mxGeometry x="1100" y="170" width="90" height="40" as="geometry" />
        </mxCell>
        <mxCell id="8MHsdMlUJWaF2BJ-dHRh-23" style="edgeStyle=orthogonalEdgeStyle;rounded=0;orthogonalLoop=1;jettySize=auto;html=1;exitX=0;exitY=0.5;exitDx=0;exitDy=0;" edge="1" parent="1" source="8MHsdMlUJWaF2BJ-dHRh-28" target="8MHsdMlUJWaF2BJ-dHRh-29">
          <mxGeometry relative="1" as="geometry" />
        </mxCell>
        <mxCell id="8MHsdMlUJWaF2BJ-dHRh-24" style="edgeStyle=orthogonalEdgeStyle;rounded=0;orthogonalLoop=1;jettySize=auto;html=1;exitX=0;exitY=0;exitDx=0;exitDy=0;" edge="1" parent="1" source="8MHsdMlUJWaF2BJ-dHRh-28" target="8MHsdMlUJWaF2BJ-dHRh-30">
          <mxGeometry relative="1" as="geometry" />
        </mxCell>
        <mxCell id="8MHsdMlUJWaF2BJ-dHRh-25" style="edgeStyle=orthogonalEdgeStyle;rounded=0;orthogonalLoop=1;jettySize=auto;html=1;exitX=0.5;exitY=0;exitDx=0;exitDy=0;entryX=0.5;entryY=1;entryDx=0;entryDy=0;" edge="1" parent="1" source="8MHsdMlUJWaF2BJ-dHRh-28" target="8MHsdMlUJWaF2BJ-dHRh-32">
          <mxGeometry relative="1" as="geometry" />
        </mxCell>
        <mxCell id="8MHsdMlUJWaF2BJ-dHRh-26" style="edgeStyle=orthogonalEdgeStyle;rounded=0;orthogonalLoop=1;jettySize=auto;html=1;exitX=0.5;exitY=1;exitDx=0;exitDy=0;" edge="1" parent="1" source="8MHsdMlUJWaF2BJ-dHRh-28" target="8MHsdMlUJWaF2BJ-dHRh-31">
          <mxGeometry relative="1" as="geometry" />
        </mxCell>
        <mxCell id="8MHsdMlUJWaF2BJ-dHRh-27" style="edgeStyle=orthogonalEdgeStyle;rounded=0;orthogonalLoop=1;jettySize=auto;html=1;exitX=1;exitY=0.5;exitDx=0;exitDy=0;" edge="1" parent="1" source="8MHsdMlUJWaF2BJ-dHRh-28" target="8MHsdMlUJWaF2BJ-dHRh-34">
          <mxGeometry relative="1" as="geometry" />
        </mxCell>
        <mxCell id="8MHsdMlUJWaF2BJ-dHRh-28" value="EMPLOYEE" style="rounded=0;whiteSpace=wrap;html=1;" vertex="1" parent="1">
          <mxGeometry x="240" y="465" width="120" height="50" as="geometry" />
        </mxCell>
        <mxCell id="8MHsdMlUJWaF2BJ-dHRh-29" value="Price" style="ellipse;whiteSpace=wrap;html=1;" vertex="1" parent="1">
          <mxGeometry x="30" y="470" width="90" height="40" as="geometry" />
        </mxCell>
        <mxCell id="8MHsdMlUJWaF2BJ-dHRh-30" value="Name" style="ellipse;whiteSpace=wrap;html=1;" vertex="1" parent="1">
          <mxGeometry x="30" y="380" width="90" height="40" as="geometry" />
        </mxCell>
        <mxCell id="8MHsdMlUJWaF2BJ-dHRh-31" value="Quantity" style="ellipse;whiteSpace=wrap;html=1;" vertex="1" parent="1">
          <mxGeometry x="30" y="564.5" width="90" height="40" as="geometry" />
        </mxCell>
        <mxCell id="8MHsdMlUJWaF2BJ-dHRh-32" value="Number" style="ellipse;whiteSpace=wrap;html=1;" vertex="1" parent="1">
          <mxGeometry x="200" y="370" width="90" height="40" as="geometry" />
        </mxCell>
        <mxCell id="8MHsdMlUJWaF2BJ-dHRh-33" style="edgeStyle=orthogonalEdgeStyle;rounded=0;orthogonalLoop=1;jettySize=auto;html=1;exitX=1;exitY=0.5;exitDx=0;exitDy=0;" edge="1" parent="1" source="8MHsdMlUJWaF2BJ-dHRh-34" target="8MHsdMlUJWaF2BJ-dHRh-39">
          <mxGeometry relative="1" as="geometry" />
        </mxCell>
        <mxCell id="8MHsdMlUJWaF2BJ-dHRh-34" value="" style="rhombus;whiteSpace=wrap;html=1;" vertex="1" parent="1">
          <mxGeometry x="440" y="450" width="80" height="80" as="geometry" />
        </mxCell>
        <mxCell id="8MHsdMlUJWaF2BJ-dHRh-35" style="edgeStyle=orthogonalEdgeStyle;rounded=0;orthogonalLoop=1;jettySize=auto;html=1;exitX=1;exitY=0.5;exitDx=0;exitDy=0;" edge="1" parent="1" source="8MHsdMlUJWaF2BJ-dHRh-39" target="8MHsdMlUJWaF2BJ-dHRh-43">
          <mxGeometry relative="1" as="geometry" />
        </mxCell>
        <mxCell id="8MHsdMlUJWaF2BJ-dHRh-36" style="edgeStyle=orthogonalEdgeStyle;rounded=0;orthogonalLoop=1;jettySize=auto;html=1;exitX=0.25;exitY=1;exitDx=0;exitDy=0;" edge="1" parent="1" source="8MHsdMlUJWaF2BJ-dHRh-39" target="8MHsdMlUJWaF2BJ-dHRh-40">
          <mxGeometry relative="1" as="geometry" />
        </mxCell>
        <mxCell id="8MHsdMlUJWaF2BJ-dHRh-37" style="edgeStyle=orthogonalEdgeStyle;rounded=0;orthogonalLoop=1;jettySize=auto;html=1;exitX=0.5;exitY=1;exitDx=0;exitDy=0;entryX=0.5;entryY=0;entryDx=0;entryDy=0;" edge="1" parent="1" source="8MHsdMlUJWaF2BJ-dHRh-39" target="8MHsdMlUJWaF2BJ-dHRh-41">
          <mxGeometry relative="1" as="geometry" />
        </mxCell>
        <mxCell id="8MHsdMlUJWaF2BJ-dHRh-38" style="edgeStyle=orthogonalEdgeStyle;rounded=0;orthogonalLoop=1;jettySize=auto;html=1;exitX=1;exitY=1;exitDx=0;exitDy=0;entryX=0.5;entryY=0;entryDx=0;entryDy=0;" edge="1" parent="1" source="8MHsdMlUJWaF2BJ-dHRh-39" target="8MHsdMlUJWaF2BJ-dHRh-42">
          <mxGeometry relative="1" as="geometry" />
        </mxCell>
        <mxCell id="8MHsdMlUJWaF2BJ-dHRh-39" value="ORDER" style="rounded=0;whiteSpace=wrap;html=1;" vertex="1" parent="1">
          <mxGeometry x="620" y="465" width="120" height="50" as="geometry" />
        </mxCell>
        <mxCell id="8MHsdMlUJWaF2BJ-dHRh-40" value="ActualShipDate" style="ellipse;whiteSpace=wrap;html=1;" vertex="1" parent="1">
          <mxGeometry x="580" y="585" width="90" height="40" as="geometry" />
        </mxCell>
        <mxCell id="8MHsdMlUJWaF2BJ-dHRh-41" value="ExpectedShipDate" style="ellipse;whiteSpace=wrap;html=1;" vertex="1" parent="1">
          <mxGeometry x="700" y="585" width="120" height="40" as="geometry" />
        </mxCell>
        <mxCell id="8MHsdMlUJWaF2BJ-dHRh-42" value="ReceivedDate" style="ellipse;whiteSpace=wrap;html=1;" vertex="1" parent="1">
          <mxGeometry x="840" y="545" width="90" height="40" as="geometry" />
        </mxCell>
        <mxCell id="8MHsdMlUJWaF2BJ-dHRh-43" value="Number" style="ellipse;whiteSpace=wrap;html=1;" vertex="1" parent="1">
          <mxGeometry x="827" y="470" width="90" height="40" as="geometry" />
        </mxCell>
      </root>
    </mxGraphModel>
  </diagram>
  <diagram id="h8WKCwAV6wbtcn5HwkKa" name="movie">
    <mxGraphModel dx="868" dy="1619" grid="1" gridSize="10" guides="1" tooltips="1" connect="1" arrows="1" fold="1" page="1" pageScale="1" pageWidth="827" pageHeight="1169" math="0" shadow="0">
      <root>
        <mxCell id="0" />
        <mxCell id="1" parent="0" />
        <mxCell id="iZkyi1aXaDCd6sI0KBkA-1" style="edgeStyle=orthogonalEdgeStyle;rounded=0;orthogonalLoop=1;jettySize=auto;html=1;exitX=0;exitY=0.5;exitDx=0;exitDy=0;" edge="1" parent="1" source="iZkyi1aXaDCd6sI0KBkA-11" target="iZkyi1aXaDCd6sI0KBkA-16">
          <mxGeometry relative="1" as="geometry" />
        </mxCell>
        <mxCell id="iZkyi1aXaDCd6sI0KBkA-2" style="edgeStyle=orthogonalEdgeStyle;rounded=0;orthogonalLoop=1;jettySize=auto;html=1;exitX=0;exitY=0;exitDx=0;exitDy=0;entryX=1;entryY=1;entryDx=0;entryDy=0;" edge="1" parent="1" source="iZkyi1aXaDCd6sI0KBkA-11" target="iZkyi1aXaDCd6sI0KBkA-15">
          <mxGeometry relative="1" as="geometry" />
        </mxCell>
        <mxCell id="iZkyi1aXaDCd6sI0KBkA-3" style="edgeStyle=orthogonalEdgeStyle;rounded=0;orthogonalLoop=1;jettySize=auto;html=1;exitX=0.25;exitY=0;exitDx=0;exitDy=0;entryX=0.5;entryY=1;entryDx=0;entryDy=0;" edge="1" parent="1" source="iZkyi1aXaDCd6sI0KBkA-11" target="iZkyi1aXaDCd6sI0KBkA-14">
          <mxGeometry relative="1" as="geometry">
            <Array as="points">
              <mxPoint x="260" y="140" />
              <mxPoint x="150" y="140" />
            </Array>
          </mxGeometry>
        </mxCell>
        <mxCell id="iZkyi1aXaDCd6sI0KBkA-4" style="edgeStyle=orthogonalEdgeStyle;rounded=0;orthogonalLoop=1;jettySize=auto;html=1;exitX=0.5;exitY=0;exitDx=0;exitDy=0;entryX=0.5;entryY=1;entryDx=0;entryDy=0;" edge="1" parent="1" source="iZkyi1aXaDCd6sI0KBkA-11" target="iZkyi1aXaDCd6sI0KBkA-13">
          <mxGeometry relative="1" as="geometry" />
        </mxCell>
        <mxCell id="iZkyi1aXaDCd6sI0KBkA-5" style="edgeStyle=orthogonalEdgeStyle;rounded=0;orthogonalLoop=1;jettySize=auto;html=1;exitX=0.75;exitY=0;exitDx=0;exitDy=0;entryX=0.613;entryY=0.975;entryDx=0;entryDy=0;entryPerimeter=0;" edge="1" parent="1" source="iZkyi1aXaDCd6sI0KBkA-11" target="iZkyi1aXaDCd6sI0KBkA-12">
          <mxGeometry relative="1" as="geometry" />
        </mxCell>
        <mxCell id="iZkyi1aXaDCd6sI0KBkA-6" value="" style="edgeStyle=orthogonalEdgeStyle;rounded=0;orthogonalLoop=1;jettySize=auto;html=1;" edge="1" parent="1" source="iZkyi1aXaDCd6sI0KBkA-11" target="iZkyi1aXaDCd6sI0KBkA-18">
          <mxGeometry relative="1" as="geometry" />
        </mxCell>
        <mxCell id="iZkyi1aXaDCd6sI0KBkA-7" style="edgeStyle=orthogonalEdgeStyle;rounded=0;orthogonalLoop=1;jettySize=auto;html=1;exitX=0.75;exitY=1;exitDx=0;exitDy=0;entryX=0.5;entryY=0;entryDx=0;entryDy=0;" edge="1" parent="1" source="iZkyi1aXaDCd6sI0KBkA-11" target="iZkyi1aXaDCd6sI0KBkA-31">
          <mxGeometry relative="1" as="geometry" />
        </mxCell>
        <mxCell id="iZkyi1aXaDCd6sI0KBkA-8" style="edgeStyle=orthogonalEdgeStyle;rounded=0;orthogonalLoop=1;jettySize=auto;html=1;exitX=1;exitY=0.25;exitDx=0;exitDy=0;entryX=0;entryY=0.5;entryDx=0;entryDy=0;" edge="1" parent="1" source="iZkyi1aXaDCd6sI0KBkA-11" target="iZkyi1aXaDCd6sI0KBkA-45">
          <mxGeometry relative="1" as="geometry">
            <Array as="points">
              <mxPoint x="400" y="183" />
              <mxPoint x="400" y="15" />
            </Array>
          </mxGeometry>
        </mxCell>
        <mxCell id="iZkyi1aXaDCd6sI0KBkA-9" style="edgeStyle=orthogonalEdgeStyle;rounded=0;orthogonalLoop=1;jettySize=auto;html=1;exitX=1;exitY=0.5;exitDx=0;exitDy=0;entryX=0;entryY=0.5;entryDx=0;entryDy=0;" edge="1" parent="1" source="iZkyi1aXaDCd6sI0KBkA-11" target="iZkyi1aXaDCd6sI0KBkA-47">
          <mxGeometry relative="1" as="geometry" />
        </mxCell>
        <mxCell id="iZkyi1aXaDCd6sI0KBkA-10" style="edgeStyle=orthogonalEdgeStyle;rounded=0;orthogonalLoop=1;jettySize=auto;html=1;exitX=1;exitY=0.75;exitDx=0;exitDy=0;entryX=0.5;entryY=1;entryDx=0;entryDy=0;" edge="1" parent="1" source="iZkyi1aXaDCd6sI0KBkA-11" target="iZkyi1aXaDCd6sI0KBkA-33">
          <mxGeometry relative="1" as="geometry" />
        </mxCell>
        <mxCell id="iZkyi1aXaDCd6sI0KBkA-11" value="MOVIE" style="rounded=0;whiteSpace=wrap;html=1;" vertex="1" parent="1">
          <mxGeometry x="230" y="170" width="120" height="50" as="geometry" />
        </mxCell>
        <mxCell id="iZkyi1aXaDCd6sI0KBkA-12" value="year" style="ellipse;whiteSpace=wrap;html=1;" vertex="1" parent="1">
          <mxGeometry x="310" y="40" width="80" height="40" as="geometry" />
        </mxCell>
        <mxCell id="iZkyi1aXaDCd6sI0KBkA-13" value="title" style="ellipse;whiteSpace=wrap;html=1;" vertex="1" parent="1">
          <mxGeometry x="210" y="40" width="80" height="40" as="geometry" />
        </mxCell>
        <mxCell id="iZkyi1aXaDCd6sI0KBkA-14" value="length" style="ellipse;whiteSpace=wrap;html=1;" vertex="1" parent="1">
          <mxGeometry x="110" y="40" width="80" height="40" as="geometry" />
        </mxCell>
        <mxCell id="iZkyi1aXaDCd6sI0KBkA-15" value="genres" style="ellipse;whiteSpace=wrap;html=1;" vertex="1" parent="1">
          <mxGeometry x="30" y="90" width="80" height="40" as="geometry" />
        </mxCell>
        <mxCell id="iZkyi1aXaDCd6sI0KBkA-16" value="plot outline" style="ellipse;whiteSpace=wrap;html=1;" vertex="1" parent="1">
          <mxGeometry x="20" y="160" width="80" height="40" as="geometry" />
        </mxCell>
        <mxCell id="iZkyi1aXaDCd6sI0KBkA-17" value="" style="edgeStyle=orthogonalEdgeStyle;rounded=0;orthogonalLoop=1;jettySize=auto;html=1;" edge="1" parent="1" source="iZkyi1aXaDCd6sI0KBkA-18" target="iZkyi1aXaDCd6sI0KBkA-19">
          <mxGeometry relative="1" as="geometry" />
        </mxCell>
        <mxCell id="iZkyi1aXaDCd6sI0KBkA-18" value="has" style="rhombus;whiteSpace=wrap;html=1;rounded=0;" vertex="1" parent="1">
          <mxGeometry x="250" y="285" width="80" height="80" as="geometry" />
        </mxCell>
        <mxCell id="iZkyi1aXaDCd6sI0KBkA-19" value="role" style="ellipse;whiteSpace=wrap;html=1;rounded=0;" vertex="1" parent="1">
          <mxGeometry x="100" y="302.5" width="70" height="45" as="geometry" />
        </mxCell>
        <mxCell id="iZkyi1aXaDCd6sI0KBkA-20" style="edgeStyle=orthogonalEdgeStyle;rounded=0;orthogonalLoop=1;jettySize=auto;html=1;exitX=0;exitY=0.25;exitDx=0;exitDy=0;" edge="1" parent="1" source="iZkyi1aXaDCd6sI0KBkA-24" target="iZkyi1aXaDCd6sI0KBkA-25">
          <mxGeometry relative="1" as="geometry" />
        </mxCell>
        <mxCell id="iZkyi1aXaDCd6sI0KBkA-21" style="edgeStyle=orthogonalEdgeStyle;rounded=0;orthogonalLoop=1;jettySize=auto;html=1;exitX=0;exitY=0.75;exitDx=0;exitDy=0;entryX=1;entryY=0.75;entryDx=0;entryDy=0;entryPerimeter=0;" edge="1" parent="1" source="iZkyi1aXaDCd6sI0KBkA-24" target="iZkyi1aXaDCd6sI0KBkA-26">
          <mxGeometry relative="1" as="geometry" />
        </mxCell>
        <mxCell id="iZkyi1aXaDCd6sI0KBkA-22" style="edgeStyle=orthogonalEdgeStyle;rounded=0;orthogonalLoop=1;jettySize=auto;html=1;entryX=0.5;entryY=1;entryDx=0;entryDy=0;" edge="1" parent="1" source="iZkyi1aXaDCd6sI0KBkA-24" target="iZkyi1aXaDCd6sI0KBkA-18">
          <mxGeometry relative="1" as="geometry" />
        </mxCell>
        <mxCell id="iZkyi1aXaDCd6sI0KBkA-23" value="" style="edgeStyle=orthogonalEdgeStyle;rounded=0;orthogonalLoop=1;jettySize=auto;html=1;" edge="1" parent="1" source="iZkyi1aXaDCd6sI0KBkA-24" target="iZkyi1aXaDCd6sI0KBkA-27">
          <mxGeometry relative="1" as="geometry" />
        </mxCell>
        <mxCell id="iZkyi1aXaDCd6sI0KBkA-24" value="ACTOR" style="rounded=0;whiteSpace=wrap;html=1;" vertex="1" parent="1">
          <mxGeometry x="230" y="420" width="120" height="50" as="geometry" />
        </mxCell>
        <mxCell id="iZkyi1aXaDCd6sI0KBkA-25" value="Name" style="ellipse;whiteSpace=wrap;html=1;" vertex="1" parent="1">
          <mxGeometry x="40" y="380" width="80" height="40" as="geometry" />
        </mxCell>
        <mxCell id="iZkyi1aXaDCd6sI0KBkA-26" value="Birth Date" style="ellipse;whiteSpace=wrap;html=1;" vertex="1" parent="1">
          <mxGeometry x="40" y="460" width="80" height="40" as="geometry" />
        </mxCell>
        <mxCell id="iZkyi1aXaDCd6sI0KBkA-27" value="speak" style="rhombus;whiteSpace=wrap;html=1;rounded=0;" vertex="1" parent="1">
          <mxGeometry x="450" y="405" width="80" height="80" as="geometry" />
        </mxCell>
        <mxCell id="iZkyi1aXaDCd6sI0KBkA-28" style="edgeStyle=orthogonalEdgeStyle;rounded=0;orthogonalLoop=1;jettySize=auto;html=1;exitX=0;exitY=0.5;exitDx=0;exitDy=0;entryX=1;entryY=0.5;entryDx=0;entryDy=0;" edge="1" parent="1" source="iZkyi1aXaDCd6sI0KBkA-29" target="iZkyi1aXaDCd6sI0KBkA-27">
          <mxGeometry relative="1" as="geometry" />
        </mxCell>
        <mxCell id="iZkyi1aXaDCd6sI0KBkA-29" value="QUOTES" style="rounded=0;whiteSpace=wrap;html=1;" vertex="1" parent="1">
          <mxGeometry x="680" y="420" width="120" height="50" as="geometry" />
        </mxCell>
        <mxCell id="iZkyi1aXaDCd6sI0KBkA-30" style="edgeStyle=orthogonalEdgeStyle;rounded=0;orthogonalLoop=1;jettySize=auto;html=1;exitX=0.5;exitY=1;exitDx=0;exitDy=0;entryX=0.5;entryY=0;entryDx=0;entryDy=0;" edge="1" parent="1" source="iZkyi1aXaDCd6sI0KBkA-31" target="iZkyi1aXaDCd6sI0KBkA-29">
          <mxGeometry relative="1" as="geometry" />
        </mxCell>
        <mxCell id="iZkyi1aXaDCd6sI0KBkA-31" value="has" style="rhombus;whiteSpace=wrap;html=1;rounded=0;" vertex="1" parent="1">
          <mxGeometry x="360" y="270" width="66" height="70" as="geometry" />
        </mxCell>
        <mxCell id="iZkyi1aXaDCd6sI0KBkA-32" style="edgeStyle=orthogonalEdgeStyle;rounded=0;orthogonalLoop=1;jettySize=auto;html=1;exitX=1;exitY=0.5;exitDx=0;exitDy=0;entryX=0;entryY=0.5;entryDx=0;entryDy=0;" edge="1" parent="1" source="iZkyi1aXaDCd6sI0KBkA-33" target="iZkyi1aXaDCd6sI0KBkA-36">
          <mxGeometry relative="1" as="geometry" />
        </mxCell>
        <mxCell id="iZkyi1aXaDCd6sI0KBkA-33" value="" style="rhombus;whiteSpace=wrap;html=1;rounded=0;" vertex="1" parent="1">
          <mxGeometry x="480" y="150" width="66" height="70" as="geometry" />
        </mxCell>
        <mxCell id="iZkyi1aXaDCd6sI0KBkA-34" style="edgeStyle=orthogonalEdgeStyle;rounded=0;orthogonalLoop=1;jettySize=auto;html=1;exitX=1;exitY=0.25;exitDx=0;exitDy=0;entryX=0.5;entryY=1;entryDx=0;entryDy=0;" edge="1" parent="1" source="iZkyi1aXaDCd6sI0KBkA-36" target="iZkyi1aXaDCd6sI0KBkA-37">
          <mxGeometry relative="1" as="geometry" />
        </mxCell>
        <mxCell id="iZkyi1aXaDCd6sI0KBkA-35" style="edgeStyle=orthogonalEdgeStyle;rounded=0;orthogonalLoop=1;jettySize=auto;html=1;exitX=1;exitY=0.75;exitDx=0;exitDy=0;entryX=0.5;entryY=0;entryDx=0;entryDy=0;" edge="1" parent="1" source="iZkyi1aXaDCd6sI0KBkA-36" target="iZkyi1aXaDCd6sI0KBkA-38">
          <mxGeometry relative="1" as="geometry" />
        </mxCell>
        <mxCell id="iZkyi1aXaDCd6sI0KBkA-36" value="DIRECTOR" style="rounded=0;whiteSpace=wrap;html=1;" vertex="1" parent="1">
          <mxGeometry x="720" y="160" width="120" height="50" as="geometry" />
        </mxCell>
        <mxCell id="iZkyi1aXaDCd6sI0KBkA-37" value="Name" style="ellipse;whiteSpace=wrap;html=1;" vertex="1" parent="1">
          <mxGeometry x="890" y="100" width="80" height="40" as="geometry" />
        </mxCell>
        <mxCell id="iZkyi1aXaDCd6sI0KBkA-38" value="BirthDate" style="ellipse;whiteSpace=wrap;html=1;" vertex="1" parent="1">
          <mxGeometry x="900" y="220" width="80" height="40" as="geometry" />
        </mxCell>
        <mxCell id="iZkyi1aXaDCd6sI0KBkA-39" style="edgeStyle=orthogonalEdgeStyle;rounded=0;orthogonalLoop=1;jettySize=auto;html=1;exitX=0.5;exitY=0;exitDx=0;exitDy=0;entryX=0.5;entryY=1;entryDx=0;entryDy=0;" edge="1" parent="1" source="iZkyi1aXaDCd6sI0KBkA-41" target="iZkyi1aXaDCd6sI0KBkA-42">
          <mxGeometry relative="1" as="geometry" />
        </mxCell>
        <mxCell id="iZkyi1aXaDCd6sI0KBkA-40" style="edgeStyle=orthogonalEdgeStyle;rounded=0;orthogonalLoop=1;jettySize=auto;html=1;exitX=1;exitY=0.5;exitDx=0;exitDy=0;" edge="1" parent="1" source="iZkyi1aXaDCd6sI0KBkA-41" target="iZkyi1aXaDCd6sI0KBkA-43">
          <mxGeometry relative="1" as="geometry" />
        </mxCell>
        <mxCell id="iZkyi1aXaDCd6sI0KBkA-41" value="PRODUCTION COMPANY" style="rounded=0;whiteSpace=wrap;html=1;" vertex="1" parent="1">
          <mxGeometry x="707" y="20" width="120" height="50" as="geometry" />
        </mxCell>
        <mxCell id="iZkyi1aXaDCd6sI0KBkA-42" value="Name" style="ellipse;whiteSpace=wrap;html=1;" vertex="1" parent="1">
          <mxGeometry x="727" y="-70" width="80" height="40" as="geometry" />
        </mxCell>
        <mxCell id="iZkyi1aXaDCd6sI0KBkA-43" value="address" style="ellipse;whiteSpace=wrap;html=1;" vertex="1" parent="1">
          <mxGeometry x="870" y="-70" width="80" height="40" as="geometry" />
        </mxCell>
        <mxCell id="iZkyi1aXaDCd6sI0KBkA-44" style="edgeStyle=orthogonalEdgeStyle;rounded=0;orthogonalLoop=1;jettySize=auto;html=1;entryX=0;entryY=0.5;entryDx=0;entryDy=0;" edge="1" parent="1" source="iZkyi1aXaDCd6sI0KBkA-45" target="iZkyi1aXaDCd6sI0KBkA-41">
          <mxGeometry relative="1" as="geometry" />
        </mxCell>
        <mxCell id="iZkyi1aXaDCd6sI0KBkA-45" value="has" style="rhombus;whiteSpace=wrap;html=1;rounded=0;" vertex="1" parent="1">
          <mxGeometry x="530" y="-20" width="66" height="70" as="geometry" />
        </mxCell>
        <mxCell id="iZkyi1aXaDCd6sI0KBkA-46" style="edgeStyle=orthogonalEdgeStyle;rounded=0;orthogonalLoop=1;jettySize=auto;html=1;exitX=1;exitY=0.5;exitDx=0;exitDy=0;" edge="1" parent="1" source="iZkyi1aXaDCd6sI0KBkA-47" target="iZkyi1aXaDCd6sI0KBkA-36">
          <mxGeometry relative="1" as="geometry" />
        </mxCell>
        <mxCell id="iZkyi1aXaDCd6sI0KBkA-47" value="act" style="rhombus;whiteSpace=wrap;html=1;rounded=0;" vertex="1" parent="1">
          <mxGeometry x="530" y="70" width="66" height="70" as="geometry" />
        </mxCell>
      </root>
    </mxGraphModel>
  </diagram>
</mxfile>
